<?xml version="1.0" standalone="no"?>
<!DOCTYPE svg PUBLIC "-//W3C//DTD SVG 20010904//EN"
 "http://www.w3.org/TR/2001/REC-SVG-20010904/DTD/svg10.dtd">
<svg version="1.0" xmlns="http://www.w3.org/2000/svg"
 width="2633.000000pt" height="2633.000000pt" viewBox="0 0 2633.000000 2633.000000"
 preserveAspectRatio="xMidYMid meet">
<metadata>
Created by potrace 1.11, written by Peter Selinger 2001-2013
</metadata>
<g transform="translate(0.000000,2633.000000) scale(0.100000,-0.100000)"
fill="#000000" stroke="none">
<path d="M13110 25127 c-25 -45 -93 -154 -151 -242 -240 -361 -538 -696 -950
-1070 -38 -35 -224 -193 -254 -217 -5 -4 -32 -26 -60 -48 -56 -45 -54 -44
-110 -85 -22 -17 -42 -32 -45 -36 -14 -16 -314 -228 -440 -311 -773 -510
-1655 -904 -2474 -1103 -38 -9 -77 -19 -85 -21 -39 -10 -350 -73 -387 -78 -22
-4 -51 -8 -64 -11 -13 -2 -58 -9 -100 -15 -76 -10 -100 -13 -200 -25 -30 -4
-68 -8 -85 -10 -34 -4 -199 -16 -290 -21 -88 -4 -439 -4 -520 1 -154 9 -243
16 -261 19 -10 2 -50 7 -88 11 -38 4 -79 8 -90 10 -12 2 -43 6 -69 10 -27 4
-59 8 -70 11 -12 2 -47 8 -77 14 -111 21 -147 28 -168 34 -9 3 -28 7 -42 10
-154 27 -534 150 -760 246 -195 83 -549 270 -637 336 -17 13 -34 24 -37 24
-19 0 -319 220 -454 333 -46 38 -85 67 -87 65 -2 -2 -7 -906 -10 -2008 -3
-1103 -8 -2617 -10 -3365 -2 -748 -7 -2433 -10 -3745 -4 -1312 -8 -2857 -10
-3435 -6 -1989 -6 -3530 -1 -3590 32 -337 106 -663 197 -862 10 -24 19 -45 19
-49 0 -8 70 -147 110 -219 196 -351 495 -655 891 -906 386 -245 872 -447 1544
-641 260 -74 947 -248 1125 -284 14 -3 93 -21 175 -41 83 -19 157 -36 165 -38
42 -9 124 -28 200 -46 47 -12 94 -23 105 -25 26 -5 38 -8 185 -44 69 -16 134
-32 145 -34 11 -3 29 -7 40 -9 11 -3 49 -13 85 -22 36 -9 72 -18 81 -20 10 -2
79 -20 155 -40 77 -20 146 -39 154 -40 8 -2 74 -20 145 -40 72 -20 137 -38
145 -40 36 -8 300 -91 475 -149 413 -138 727 -266 1070 -438 256 -128 466
-254 695 -416 472 -335 863 -751 1154 -1228 l63 -103 81 124 c209 317 539 672
832 895 25 19 47 37 50 40 21 25 281 204 425 292 219 134 549 305 780 403 17
7 62 26 101 43 225 97 547 212 874 314 200 62 301 92 440 129 19 5 42 12 50
14 27 8 435 115 455 120 23 5 11 2 230 55 269 65 368 88 395 93 14 3 86 19
160 37 74 17 142 33 150 35 8 2 116 26 240 55 124 28 232 53 240 55 69 15 138
32 280 66 91 22 172 42 180 44 274 60 862 229 1145 330 72 25 135 47 140 49 6
2 19 7 30 11 11 4 54 21 95 37 41 17 99 41 128 54 29 13 55 24 57 24 3 0 65
29 139 64 481 229 832 502 1066 829 188 263 296 545 345 900 21 156 21 33 10
3982 -4 1282 -8 2967 -10 3745 -2 778 -7 2419 -10 3645 -3 1227 -8 2838 -10
3580 -2 743 -4 1466 -5 1608 l0 259 -47 -59 c-54 -68 -187 -201 -258 -258 -82
-66 -220 -165 -230 -165 -3 0 -18 -8 -33 -19 -45 -31 -87 -55 -87 -50 0 2 -13
-6 -30 -17 -55 -39 -349 -174 -445 -205 -14 -4 -56 -19 -95 -34 -67 -25 -348
-109 -397 -119 -13 -2 -81 -18 -153 -34 -124 -27 -218 -46 -295 -57 -19 -3
-46 -7 -60 -10 -14 -2 -43 -7 -65 -10 -22 -2 -56 -7 -75 -10 -45 -6 -121 -14
-190 -21 -30 -2 -73 -6 -95 -9 -106 -11 -355 -20 -590 -19 -404 0 -717 25
-1135 88 -122 19 -358 66 -535 106 -49 12 -97 23 -106 25 -36 8 -247 66 -289
79 -25 8 -99 31 -165 51 -66 21 -129 41 -140 45 -11 5 -90 34 -175 65 -242 89
-451 180 -704 306 -122 62 -163 83 -280 148 -16 9 -52 31 -80 49 -28 17 -54
32 -58 32 -15 0 -382 243 -518 343 -92 68 -318 247 -351 277 -9 8 -47 42 -85
75 -290 252 -629 622 -863 940 -25 33 -56 76 -71 95 -46 60 -213 319 -290 448
-40 67 -73 122 -74 122 0 0 -21 -38 -46 -83z"/>
</g>
</svg>
